<?xml version="1.0" encoding="UTF-8" standalone="no"?>
<!-- Created with Inkscape (http://www.inkscape.org/) -->

<svg
   xmlns:dc="http://purl.org/dc/elements/1.1/"
   xmlns:cc="http://creativecommons.org/ns#"
   xmlns:rdf="http://www.w3.org/1999/02/22-rdf-syntax-ns#"
   xmlns:svg="http://www.w3.org/2000/svg"
   xmlns="http://www.w3.org/2000/svg"
   xmlns:sodipodi="http://sodipodi.sourceforge.net/DTD/sodipodi-0.dtd"
   xmlns:inkscape="http://www.inkscape.org/namespaces/inkscape"
   width="846.43884"
   height="164.41821"
   id="svg4143"
   version="1.1"
   inkscape:version="0.48+devel r11460"
   sodipodi:docname="logo_cropped.svg">
  <defs
     id="defs4145" />
  <sodipodi:namedview
     id="base"
     pagecolor="#ffffff"
     bordercolor="#666666"
     borderopacity="1.0"
     inkscape:pageopacity="0.0"
     inkscape:pageshadow="2"
     inkscape:zoom="0.35"
     inkscape:cx="130.36232"
     inkscape:cy="-66.362324"
     inkscape:document-units="px"
     inkscape:current-layer="layer1"
     showgrid="false"
     width="0px"
     height="0px"
     fit-margin-top="0"
     fit-margin-left="0"
     fit-margin-right="0"
     fit-margin-bottom="0"
     inkscape:window-width="1920"
     inkscape:window-height="1125"
     inkscape:window-x="-9"
     inkscape:window-y="-9"
     inkscape:window-maximized="1" />
  <metadata
     id="metadata4148">
    <rdf:RDF>
      <cc:Work
         rdf:about="">
        <dc:format>image/svg+xml</dc:format>
        <dc:type
           rdf:resource="http://purl.org/dc/dcmitype/StillImage" />
        <dc:title></dc:title>
      </cc:Work>
    </rdf:RDF>
  </metadata>
  <g
     inkscape:label="Ebene 1"
     inkscape:groupmode="layer"
     id="layer1"
     transform="translate(74.648039,-301.58165)">
    <g
       id="g1223"
       transform="matrix(3.5433071,0,0,3.5433071,-1504.3196,754.64952)">
      <circle
         sodipodi:ry="4.3730793"
         sodipodi:rx="4.3730793"
         sodipodi:cy="-106.84274"
         sodipodi:cx="446.94418"
         d="m 451.31726,-106.84274 c 0,2.41518 -1.95789,4.37308 -4.37308,4.37308 -2.41518,0 -4.37308,-1.9579 -4.37308,-4.37308 0,-2.41519 1.9579,-4.37308 4.37308,-4.37308 2.41519,0 4.37308,1.95789 4.37308,4.37308 z"
         style="fill:#ffcc00;fill-opacity:1;stroke:none"
         id="circle980"
         cx="446.94418"
         cy="-106.84274"
         r="4.3730793" />
      <circle
         sodipodi:ry="4.3730793"
         sodipodi:rx="4.3730793"
         sodipodi:cy="-106.84274"
         sodipodi:cx="421.29175"
         d="m 425.66483,-106.84274 c 0,2.41518 -1.9579,4.37308 -4.37308,4.37308 -2.41519,0 -4.37308,-1.9579 -4.37308,-4.37308 0,-2.41519 1.95789,-4.37308 4.37308,-4.37308 2.41518,0 4.37308,1.95789 4.37308,4.37308 z"
         r="4.3730793"
         cy="-106.84274"
         cx="421.29175"
         id="circle982"
         style="fill:#ff0000;fill-opacity:1;stroke:none" />
      <circle
         sodipodi:ry="4.3730793"
         sodipodi:rx="4.3730793"
         sodipodi:cy="-102.90607"
         sodipodi:cx="434.11798"
         d="m 438.49106,-102.90607 c 0,2.41519 -1.95789,4.373082 -4.37308,4.373082 -2.41518,0 -4.37308,-1.957892 -4.37308,-4.373082 0,-2.41518 1.9579,-4.37308 4.37308,-4.37308 2.41519,0 4.37308,1.9579 4.37308,4.37308 z"
         style="fill:#0066ff;fill-opacity:1;stroke:none"
         id="circle984"
         cx="434.11798"
         cy="-102.90607"
         r="4.3730793" />
      <path
         style="font-size:xx-small;font-style:normal;font-variant:normal;font-weight:normal;font-stretch:normal;text-indent:0;text-align:start;text-decoration:none;line-height:normal;letter-spacing:normal;word-spacing:normal;text-transform:none;direction:ltr;writing-mode:lr-tb;text-anchor:start;baseline-shift:baseline;color:#000000;color-interpolation:sRGB;color-interpolation-filters:linearRGB;fill:#cccccc;fill-opacity:1;fill-rule:nonzero;stroke:none;visibility:visible;display:inline;overflow:visible;enable-background:accumulate;clip-rule:nonzero;font-family:sans-serif"
         d="m 404.90796,-118.37246 c -1.85105,0.5948 -1.85105,3.2138 0,3.8086 l 28.59765,9.18359 c 0.39816,0.12803 0.82645,0.12803 1.22461,0 l 28.59766,-9.18359 c 1.85104,-0.5948 1.85104,-3.2138 0,-3.8086 0,0 -28.40956,-9.11537 -28.60593,-9.17738 -0.19163,-0.0605 -0.38257,-0.0999 -0.5904,-0.10204 -0.20783,-0.002 -0.49237,0.0724 -0.59607,0.10022 -0.29445,0.0789 -28.62752,9.1792 -28.62752,9.1792 z m 29.20898,-5.17772 22.05665,7.08202 -22.05665,7.08398 -22.05664,-7.08398 z"
         id="path986"
         inkscape:connector-curvature="0"
         sodipodi:nodetypes="ccccccscscccccc" />
      <path
         sodipodi:nodetypes="cccccccccccccc"
         inkscape:connector-curvature="0"
         id="path988"
         d="m 409.89258,-96.151761 c -1.44027,0.46251 -4.98471,1.60041 -4.98471,1.60041 -1.85104,0.59481 -1.85104,3.21376 0,3.80856 l 28.59774,9.18342 c 0.39816,0.12803 0.82657,0.12803 1.22473,0 l 28.59773,-9.18342 c 1.85105,-0.5948 1.85105,-3.21375 0,-3.80856 0,0 -3.56003,-1.14213 -4.98677,-1.5999 l -6.54017,2.10013 4.37234,1.40405 -22.05653,7.08381 -22.05653,-7.08381 4.37337,-1.40405 z"
         style="font-size:xx-small;font-style:normal;font-variant:normal;font-weight:normal;font-stretch:normal;text-indent:0;text-align:start;text-decoration:none;line-height:normal;letter-spacing:normal;word-spacing:normal;text-transform:none;direction:ltr;writing-mode:lr-tb;text-anchor:start;baseline-shift:baseline;color:#000000;color-interpolation:sRGB;color-interpolation-filters:linearRGB;fill:#cccccc;fill-opacity:1;fill-rule:nonzero;stroke:none;visibility:visible;display:inline;overflow:visible;enable-background:accumulate;clip-rule:nonzero;font-family:sans-serif" />
      <path
         style="fill:none;stroke:#000000;stroke-width:4;stroke-linecap:round;stroke-linejoin:round;stroke-opacity:1"
         d="m 434.10919,-107.28855 -28.57358,-9.15861 28.58185,-9.20513 28.60807,9.17774"
         id="path990"
         inkscape:connector-curvature="0"
         sodipodi:nodetypes="cccc" />
      <path
         style="fill:none;stroke:#000000;stroke-width:4;stroke-linecap:round;stroke-linejoin:round;stroke-opacity:1"
         d="m 444.71733,-98.408721 18.0082,5.75495 -28.58669,9.17857 -28.62662,-9.17115"
         id="path992"
         inkscape:connector-curvature="0"
         sodipodi:nodetypes="cccc" />
      <path
         style="font-size:xx-small;font-style:normal;font-variant:normal;font-weight:normal;font-stretch:normal;text-indent:0;text-align:start;text-decoration:none;line-height:normal;letter-spacing:normal;word-spacing:normal;text-transform:none;direction:ltr;writing-mode:lr-tb;text-anchor:start;baseline-shift:baseline;color:#000000;color-interpolation:sRGB;color-interpolation-filters:linearRGB;fill:#cccccc;fill-opacity:1;fill-rule:nonzero;stroke:none;visibility:visible;display:inline;overflow:visible;enable-background:accumulate;clip-rule:nonzero;font-family:sans-serif"
         d="m 409.89258,-107.79341 c -1.44027,0.46251 -4.98471,1.60041 -4.98471,1.60041 -1.85104,0.59481 -1.85104,3.21376 0,3.80856 l 28.59774,9.183419 c 0.39816,0.12803 0.82657,0.12803 1.22473,0 l 28.59773,-9.183419 c 1.85105,-0.5948 1.85105,-3.21375 0,-3.80856 0,0 -3.56003,-1.14213 -4.98677,-1.5999 l -6.54017,2.10013 4.37234,1.40405 -22.05653,7.083809 -22.05653,-7.083809 4.37337,-1.40405 z"
         id="path994"
         inkscape:connector-curvature="0"
         sodipodi:nodetypes="cccccccccccccc" />
      <path
         d="m 499.46103,-117.27239 q 2.73705,0 4.91657,0.7603 2.17951,0.76029 4.15627,2.28088 l -2.02745,3.09186 q -1.77402,-1.26715 -3.44667,-1.8247 -1.62196,-0.60824 -3.44667,-0.60824 -2.28088,0 -3.59872,0.96304 -1.31785,0.91235 -1.31785,2.53432 0,1.62196 1.21648,2.53431 1.26715,0.91235 4.51108,1.77402 4.46039,1.1151 6.6399,3.04118 2.2302,1.92608 2.2302,5.271369 0,3.95353 -3.09187,6.03167 -3.04117,2.07814 -7.45088,2.07814 -6.08236,0 -10.08657,-3.49735 l 2.585,-2.93981 q 3.14255,2.68637 7.4002,2.68637 2.585,0 4.15627,-1.06441 1.57128,-1.06441 1.57128,-2.83843 0,-1.41922 -0.55755,-2.28088 -0.55755,-0.912359 -1.92608,-1.520589 -1.31785,-0.65892 -4.00422,-1.36853 -4.25765,-1.1151 -6.18373,-2.99049 -1.87539,-1.92608 -1.87539,-4.8152 0,-2.07814 1.21647,-3.75079 1.26716,-1.67264 3.44667,-2.585 2.2302,-0.96304 4.96726,-0.96304 z"
         style="font-size:50.68629074px;font-style:normal;font-variant:normal;font-weight:normal;font-stretch:normal;text-align:start;line-height:1.25;letter-spacing:0px;word-spacing:0px;writing-mode:lr-tb;text-anchor:start;fill:#000000;fill-opacity:1;stroke:none;font-family:Fira Sans;-inkscape-font-specification:'Fira Sans, Normal'"
         id="path996"
         inkscape:connector-curvature="0" />
      <path
         d="m 542.68614,-117.27239 q 3.2946,0 5.27137,2.2302 1.97677,2.17951 1.97677,5.9303 l 0,19.159409 -4.66314,0 0,-18.500489 q 0,-5.17 -3.75079,-5.17 -1.97676,0 -3.34529,1.16578 -1.36853,1.1151 -2.93981,3.54804 l 0,18.956669 -4.66314,0 0,-18.500489 q 0,-5.17 -3.75078,-5.17 -2.02745,0 -3.39598,1.16578 -1.36853,1.16579 -2.88912,3.54804 l 0,18.956669 -4.66314,0 0,-26.711669 4.00422,0 0.40549,3.90284 q 2.99049,-4.51108 7.70431,-4.51108 2.48363,0 4.20696,1.26716 1.77402,1.26716 2.53432,3.54804 1.57127,-2.33157 3.44667,-3.54804 1.92608,-1.26716 4.51108,-1.26716 z"
         style="font-size:50.68629074px;font-style:normal;font-variant:normal;font-weight:normal;font-stretch:normal;text-align:start;line-height:1.25;letter-spacing:0px;word-spacing:0px;writing-mode:lr-tb;text-anchor:start;fill:#000000;fill-opacity:1;stroke:none;font-family:Fira Sans;-inkscape-font-specification:'Fira Sans, Normal'"
         id="path998"
         inkscape:connector-curvature="0" />
      <path
         d="m 575.19743,-89.952481 -0.3548,-4.15627 q -1.52059,2.48363 -3.49736,3.64941 -1.97676,1.1151 -4.81519,1.1151 -3.49736,0 -5.47412,-2.12883 -1.97677,-2.12882 -1.97677,-6.03166 l 0,-19.159419 4.66314,0 0,18.652549 q 0,2.73706 0.96304,3.90285 0.96304,1.1151 3.14255,1.1151 3.90284,0 6.69059,-4.61246 l 0,-19.058039 4.66314,0 0,26.711669 z"
         style="font-size:50.68629074px;font-style:normal;font-variant:normal;font-weight:normal;font-stretch:normal;text-align:start;line-height:1.25;letter-spacing:0px;word-spacing:0px;writing-mode:lr-tb;text-anchor:start;fill:#000000;fill-opacity:1;stroke:none;font-family:Fira Sans;-inkscape-font-specification:'Fira Sans, Normal'"
         id="path1000"
         inkscape:connector-curvature="0" />
      <path
         d="m 602.31618,-91.168951 q -2.63568,1.82471 -5.98098,1.82471 -3.39598,0 -5.32206,-1.92608 -1.87539,-1.97677 -1.87539,-5.67686 l 0,-16.118239 -4.66314,0 0,-3.59873 4.66314,0 0,-6.03167 4.66314,-0.55755 0,6.58922 6.33578,0 -0.50686,3.59873 -5.82892,0 0,15.915489 q 0,2.07814 0.7096,3.04118 0.7603,0.91235 2.48363,0.91235 1.67265,0 3.54804,-1.16578 z"
         style="font-size:50.68629074px;font-style:normal;font-variant:normal;font-weight:normal;font-stretch:normal;text-align:start;line-height:1.25;letter-spacing:0px;word-spacing:0px;writing-mode:lr-tb;text-anchor:start;fill:#000000;fill-opacity:1;stroke:none;font-family:Fira Sans;-inkscape-font-specification:'Fira Sans, Normal'"
         id="path1002"
         inkscape:connector-curvature="0" />
      <path
         d="m 619.71821,-117.27239 q 3.64941,0 5.67686,2.17951 2.07814,2.17951 2.07814,5.98099 l 0,19.159409 -4.66314,0 0,-18.500489 q 0,-2.83843 -1.1151,-4.00422 -1.06441,-1.16578 -3.14255,-1.16578 -2.07814,0 -3.7001,1.21647 -1.62196,1.21647 -3.04118,3.44666 l 0,19.007359 -4.66313,0 0,-37.406479 4.66313,-0.50686 0,14.90177 q 3.14255,-4.30834 7.90707,-4.30834 z"
         style="font-size:50.68629074px;font-style:normal;font-variant:normal;font-weight:normal;font-stretch:normal;text-align:start;line-height:1.25;letter-spacing:0px;word-spacing:0px;writing-mode:lr-tb;text-anchor:start;fill:#000000;fill-opacity:1;stroke:none;font-family:Fira Sans;-inkscape-font-specification:'Fira Sans, Normal'"
         id="path1004"
         inkscape:connector-curvature="0" />
      <path
         sodipodi:nodetypes="ccccc"
         d="m 636.84701,-89.952481 0,-26.711669 4.66314,0 0,26.711669 z"
         style="font-size:50.68629074px;font-style:normal;font-variant:normal;font-weight:normal;font-stretch:normal;text-align:start;line-height:1.25;letter-spacing:0px;word-spacing:0px;writing-mode:lr-tb;text-anchor:start;fill:#000000;fill-opacity:1;stroke:none;font-family:Fira Sans;-inkscape-font-specification:'Fira Sans, Normal'"
         id="path1006"
         inkscape:connector-curvature="0" />
      <circle
         sodipodi:ry="3.2272794"
         sodipodi:rx="3.2272794"
         sodipodi:cy="-124.50829"
         sodipodi:cx="639.14166"
         d="m 642.36894,-124.50829 c 0,1.78237 -1.4449,3.22728 -3.22728,3.22728 -1.78237,0 -3.22728,-1.44491 -3.22728,-3.22728 0,-1.78238 1.44491,-3.22728 3.22728,-3.22728 1.78238,0 3.22728,1.4449 3.22728,3.22728 z"
         r="3.2272794"
         cy="-124.50829"
         cx="639.14166"
         id="circle1008"
         style="fill:#000000;fill-opacity:1;stroke:none" />
    </g>
  </g>
</svg>
